# xmcd
#
# Track frame offsets:
#	150
#	13020
#	29226
#	45204
#	58807
#	70593
#	83041
#	96018
#	108214
#	123804
#	135076
#	146204
#
# Disc length: 2189 seconds
#
# Revision: 0
# Processed by: cddbd v1.5.2PL0 Copyright (c) Steve Scherf et al.
# Submitted via: EasyCDDAExtractor 15.3.0.1
#
DISCID=96088b0c
DTITLE=American Drifters - Classic Hits 2
DYEAR=1900
DGENRE=Pop
TTITLE0=Hello Happiness
TTITLE1=Up on the roof
TTITLE2=Kissing in the back row
TTITLE3=Stand by me
TTITLE4=Under the boardwalk
TTITLE5=Spanish HArlem
TTITLE6=Dance with me
TTITLE7=Magic moment
TTITLE8=More than a number
TTITLE9=Save the last dance
TTITLE10=Down at the club
TTITLE11=Saturday night at the movies
EXTD=
EXTT0=
EXTT1=
EXTT2=
EXTT3=
EXTT4=
EXTT5=
EXTT6=
EXTT7=
EXTT8=
EXTT9=
EXTT10=
EXTT11=
PLAYORDER=
